<svg xmlns="http://www.w3.org/2000/svg" viewBox="0 0 1200 400" width="1200" height="400">
  <defs>
    <linearGradient id="bg" x1="0%" y1="0%" x2="100%" y2="100%">
      <stop offset="0%" style="stop-color:#0a0a0a"/>
      <stop offset="50%" style="stop-color:#111111"/>
      <stop offset="100%" style="stop-color:#0d0d0d"/>
    </linearGradient>
    <radialGradient id="glow1" cx="20%" cy="60%" r="35%">
      <stop offset="0%" style="stop-color:#2496ED;stop-opacity:0.15"/>
      <stop offset="100%" style="stop-color:#2496ED;stop-opacity:0"/>
    </radialGradient>
    <radialGradient id="glow2" cx="35%" cy="30%" r="25%">
      <stop offset="0%" style="stop-color:#2496ED;stop-opacity:0.1"/>
      <stop offset="100%" style="stop-color:#2496ED;stop-opacity:0"/>
    </radialGradient>
  </defs>
  <rect width="1200" height="400" fill="url(#bg)"/>
  <rect width="1200" height="400" fill="url(#glow1)"/>
  <rect width="1200" height="400" fill="url(#glow2)"/>
  <circle cx="513" cy="211" r="1.724751112937897" fill="white" opacity="0.8"/>
  <circle cx="585" cy="361" r="1.3411170218344033" fill="white" opacity="0.6"/>
  <circle cx="61" cy="74" r="2.7497922289250702" fill="white" opacity="0.6"/>
  <circle cx="531" cy="99" r="1.374242994910512" fill="white" opacity="0.6"/>
  <circle cx="47" cy="107" r="2.623179520938997" fill="white" opacity="0.8"/>
  <circle cx="199" cy="167" r="1.6864084787182125" fill="white" opacity="0.6"/>
  <circle cx="390" cy="100" r="2.5468692088141536" fill="white" opacity="0.6"/>
  <circle cx="382" cy="125" r="1.2139698794963805" fill="white" opacity="0.2"/>
  <circle cx="372" cy="139" r="1.4023671266150521" fill="white" opacity="0.7"/>
  <circle cx="487" cy="145" r="3.062939528860237" fill="white" opacity="0.8"/>
  <circle cx="205" cy="301" r="2.8827992538204184" fill="white" opacity="0.6"/>
  <circle cx="58" cy="111" r="2.2321523936936707" fill="white" opacity="0.4"/>
  <circle cx="239" cy="320" r="3.011994352591378" fill="white" opacity="0.9"/>
  <circle cx="61" cy="53" r="2.4138260805092324" fill="white" opacity="0.8"/>
  <circle cx="70" cy="38" r="2.225585573779345" fill="white" opacity="0.8"/>
  <circle cx="280" cy="362" r="1.7260341634939338" fill="white" opacity="0.7"/>
  <circle cx="203" cy="292" r="3.0181562558864403" fill="white" opacity="0.4"/>
  <circle cx="428" cy="157" r="2.7322899144690282" fill="white" opacity="0.3"/>
  <circle cx="101" cy="155" r="2.8656802201367384" fill="white" opacity="0.9"/>
  <circle cx="578" cy="231" r="3.873512254869848" fill="white" opacity="0.6"/>
  <circle cx="111" cy="243" r="3.797367870498489" fill="white" opacity="0.5"/>
  <circle cx="476" cy="33" r="3.392329854478432" fill="white" opacity="0.7"/>
  <circle cx="482" cy="136" r="1.9684529015395156" fill="white" opacity="0.5"/>
  <circle cx="94" cy="148" r="3.887057441073187" fill="white" opacity="0.6"/>
  <circle cx="386" cy="254" r="1.3473269307282478" fill="white" opacity="0.4"/>
  <circle cx="150" cy="356" r="2.082686786678589" fill="white" opacity="0.4"/>
  <circle cx="584" cy="184" r="3.3984907972104" fill="white" opacity="0.6"/>
  <circle cx="123" cy="156" r="3.7234484332491693" fill="white" opacity="0.3"/>
  <circle cx="594" cy="323" r="2.181281957322301" fill="white" opacity="0.4"/>
  <circle cx="399" cy="78" r="1.3710869104780765" fill="white" opacity="0.4"/>
  <circle cx="542" cy="320" r="2.954929948795177" fill="white" opacity="0.6"/>
  <circle cx="560" cy="205" r="1.2812891099390353" fill="white" opacity="0.4"/>
  <circle cx="218" cy="260" r="3.90861340129039" fill="white" opacity="0.7"/>
  <circle cx="327" cy="294" r="1.0026019070025756" fill="white" opacity="0.5"/>
  <circle cx="340" cy="147" r="2.69223548371753" fill="white" opacity="0.2"/>
  <circle cx="43" cy="204" r="2.863203311664712" fill="white" opacity="0.3"/>
  <circle cx="41" cy="206" r="3.3752730240842483" fill="white" opacity="0.7"/>
  <circle cx="332" cy="52" r="2.781008527007781" fill="white" opacity="0.8"/>
  <circle cx="428" cy="167" r="2.177889716334049" fill="white" opacity="0.2"/>
  <circle cx="312" cy="78" r="2.440900570098642" fill="white" opacity="0.4"/>
  <circle cx="299" cy="317" r="2.8624632506003005" fill="white" opacity="0.9"/>
  <circle cx="544" cy="129" r="2.495861890479718" fill="white" opacity="0.4"/>
  <circle cx="312" cy="156" r="2.7190992158552683" fill="white" opacity="0.6"/>
  <circle cx="438" cy="366" r="2.010728115566898" fill="white" opacity="0.8"/>
  <circle cx="96" cy="93" r="1.6574291677346653" fill="white" opacity="0.7"/>
  <circle cx="380" cy="231" r="1.1200743672676912" fill="white" opacity="0.5"/>
  <circle cx="428" cy="135" r="3.116948669384022" fill="white" opacity="0.3"/>
  <circle cx="289" cy="116" r="1.4884649573960789" fill="white" opacity="0.2"/>
  <circle cx="136" cy="256" r="3.296546225797832" fill="white" opacity="0.6"/>
  <circle cx="598" cy="67" r="3.1687677083026133" fill="white" opacity="0.7"/>
  <circle cx="553" cy="246" r="1.3967606439291478" fill="white" opacity="0.6"/>
  <circle cx="341" cy="356" r="3.1591107497032294" fill="white" opacity="0.6"/>
  <circle cx="571" cy="158" r="2.583817363902375" fill="white" opacity="0.3"/>
  <circle cx="404" cy="131" r="3.3561827387428176" fill="white" opacity="0.3"/>
  <circle cx="180" cy="310" r="2.6949720557767938" fill="white" opacity="0.6"/>
  <circle cx="481" cy="275" r="2.1553759263012227" fill="white" opacity="0.3"/>
  <circle cx="589" cy="358" r="2.500045652113758" fill="white" opacity="0.6"/>
  <circle cx="200" cy="97" r="1.5195476607704368" fill="white" opacity="0.5"/>
  <circle cx="529" cy="345" r="1.6986049068054192" fill="white" opacity="0.4"/>
  <circle cx="111" cy="185" r="3.918747051281419" fill="white" opacity="0.7"/>
  <line x1="583" y1="244" x2="683" y2="184" stroke="white" stroke-width="0.5" opacity="0.15"/>
  <line x1="376" y1="273" x2="459" y2="233" stroke="white" stroke-width="0.5" opacity="0.15"/>
  <line x1="571" y1="340" x2="645" y2="377" stroke="white" stroke-width="0.5" opacity="0.15"/>
  <line x1="66" y1="68" x2="160" y2="92" stroke="white" stroke-width="0.5" opacity="0.15"/>
  <line x1="326" y1="73" x2="402" y2="-2" stroke="white" stroke-width="0.5" opacity="0.15"/>
  <line x1="216" y1="153" x2="276" y2="97" stroke="white" stroke-width="0.5" opacity="0.15"/>
  <line x1="181" y1="65" x2="249" y2="4" stroke="white" stroke-width="0.5" opacity="0.15"/>
  <line x1="167" y1="176" x2="253" y2="254" stroke="white" stroke-width="0.5" opacity="0.15"/>
  <line x1="114" y1="225" x2="172" y2="251" stroke="white" stroke-width="0.5" opacity="0.15"/>
  <line x1="305" y1="207" x2="388" y2="153" stroke="white" stroke-width="0.5" opacity="0.15"/>
  <line x1="485" y1="361" x2="542" y2="424" stroke="white" stroke-width="0.5" opacity="0.15"/>
  <line x1="460" y1="105" x2="534" y2="165" stroke="white" stroke-width="0.5" opacity="0.15"/>
  <line x1="44" y1="366" x2="157" y2="358" stroke="white" stroke-width="0.5" opacity="0.15"/>
  <line x1="593" y1="192" x2="639" y2="264" stroke="white" stroke-width="0.5" opacity="0.15"/>
  <line x1="482" y1="325" x2="534" y2="324" stroke="white" stroke-width="0.5" opacity="0.15"/>

  <line x1="650" y1="60" x2="650" y2="340" stroke="white" stroke-width="0.5" opacity="0.15"/>
  <text x="680" y="155" font-family="'SF Pro Display','Helvetica Neue',Arial,sans-serif" font-size="88" font-weight="800" fill="white" letter-spacing="8">DOCKER LEARNING</text>
  <text x="680" y="200" font-family="'SF Pro Display','Helvetica Neue',Arial,sans-serif" font-size="18" font-weight="400" fill="white" opacity="0.85" letter-spacing="3">DOCKER LEARNING</text>
  <text x="680" y="230" font-family="'Noto Sans SC','PingFang SC','Microsoft YaHei',sans-serif" font-size="16" font-weight="300" fill="white" opacity="0.6" letter-spacing="2">Docker · Kubernetes · 11 篇文档 · 6 个示例 · 3 个速查表</text>
  <text x="680" y="280" font-family="'SF Mono','Fira Code','Consolas',monospace" font-size="13" fill="white" opacity="0.45" letter-spacing="1.5">VitePress · Docker · K8s</text>
  <line x1="680" y1="310" x2="1140" y2="310" stroke="white" stroke-width="0.5" opacity="0.15"/>
  <text x="680" y="340" font-family="'SF Mono','Fira Code','Consolas',monospace" font-size="11" fill="white" opacity="0.35" letter-spacing="1">DOCKER · KUBERNETES · CONTAINER · DEVOPS</text>
</svg>